<?xml version="1.0" encoding="UTF-8" standalone="no"?>
<!-- Generator: Adobe Illustrator 16.0.0, SVG Export Plug-In . SVG Version: 6.00 Build 0)  -->

<svg
   xmlns:dc="http://purl.org/dc/elements/1.1/"
   xmlns:cc="http://creativecommons.org/ns#"
   xmlns:rdf="http://www.w3.org/1999/02/22-rdf-syntax-ns#"
   xmlns:svg="http://www.w3.org/2000/svg"
   xmlns="http://www.w3.org/2000/svg"
   xmlns:sodipodi="http://sodipodi.sourceforge.net/DTD/sodipodi-0.dtd"
   xmlns:inkscape="http://www.inkscape.org/namespaces/inkscape"
   version="1.1"
   id="Capa_1"
   x="0px"
   y="0px"
   width="489px"
   height="489.001px"
   viewBox="0 0 489 489.001"
   style="enable-background:new 0 0 489 489.001;"
   xml:space="preserve"
   inkscape:version="0.91 r13725"
   sodipodi:docname="new.svg"><metadata
     id="metadata41"><rdf:RDF><cc:Work
         rdf:about=""><dc:format>image/svg+xml</dc:format><dc:type
           rdf:resource="http://purl.org/dc/dcmitype/StillImage" /></cc:Work></rdf:RDF></metadata><defs
     id="defs39" /><sodipodi:namedview
     pagecolor="#ffffff"
     bordercolor="#666666"
     borderopacity="1"
     objecttolerance="10"
     gridtolerance="10"
     guidetolerance="10"
     inkscape:pageopacity="0"
     inkscape:pageshadow="2"
     inkscape:window-width="690"
     inkscape:window-height="480"
     id="namedview37"
     showgrid="false"
     inkscape:zoom="0.48261659"
     inkscape:cx="244.5"
     inkscape:cy="244.5005"
     inkscape:window-x="0"
     inkscape:window-y="0"
     inkscape:window-maximized="0"
     inkscape:current-layer="Capa_1" /><g
     id="g3"
     transform="matrix(0.96196769,0,0,0.96196769,9.0107848,10)"><path
       d="M 355.768,0 86.218,0 C 53.33,0 26.577,26.753 26.577,59.636 l 0,369.729 c 0,32.883 26.752,59.636 59.641,59.636 l 316.566,0 c 32.889,-10e-4 59.641,-26.754 59.641,-59.637 l 0,-320.204 L 355.768,0 Z m 47.016,446.479 -316.566,0 c -9.437,0 -17.119,-7.678 -17.119,-17.113 l 0,-369.73 c 0,-9.437 7.683,-17.114 17.119,-17.114 l 248.642,0 0,47.604 c 0,21.043 17.109,38.162 38.152,38.375 l 46.891,0.477 0,300.388 c 0,9.435 -7.684,17.113 -17.119,17.113 z"
       id="path5"
       inkscape:connector-curvature="0" /></g><g
     id="g7" /><g
     id="g9" /><g
     id="g11" /><g
     id="g13" /><g
     id="g15" /><g
     id="g17" /><g
     id="g19" /><g
     id="g21" /><g
     id="g23" /><g
     id="g25" /><g
     id="g27" /><g
     id="g29" /><g
     id="g31" /><g
     id="g33" /><g
     id="g35" /></svg>