<?xml version="1.0" encoding="iso-8859-1"?>
<!-- Generator: Adobe Illustrator 16.0.0, SVG Export Plug-In . SVG Version: 6.00 Build 0)  -->
<!DOCTYPE svg PUBLIC "-//W3C//DTD SVG 1.1//EN" "http://www.w3.org/Graphics/SVG/1.1/DTD/svg11.dtd">
<svg version="1.1" id="Capa_1" xmlns="http://www.w3.org/2000/svg" xmlns:xlink="http://www.w3.org/1999/xlink" x="0px" y="0px"
	 width="45.678px" height="45.678px" viewBox="0 0 45.678 45.678" style="enable-background:new 0 0 45.678 45.678;"
	 xml:space="preserve">
<g>
	<g>
		<path d="M38.988,6.689c-8.919-8.918-23.38-8.919-32.3,0c-8.918,8.919-8.917,23.38,0,32.299c8.92,8.919,23.381,8.919,32.3,0
			C47.908,30.069,47.906,15.608,38.988,6.689z M21.893,36.016c-1.73,0-2.906-1.272-2.906-2.971c0-1.73,1.209-2.972,2.906-2.972
			c1.764,0,2.906,1.241,2.938,2.972C24.831,34.742,23.656,36.016,21.893,36.016z M26.215,21.981c-1.32,1.466-1.856,2.861-1.82,4.468
			c0,1.193-0.969,2.162-2.163,2.162H21.77c-1.182,0-2.145-0.949-2.161-2.131l-0.005-0.317c-0.107-1.823,0.501-3.681,2.109-5.611
			c1.145-1.359,2.072-2.502,2.072-3.718c0-1.25-0.822-2.073-2.607-2.146c-0.549,0-1.15,0.093-1.731,0.256
			c-1.056,0.297-2.156-0.298-2.482-1.345l-0.006-0.02c-0.329-1.054,0.247-2.175,1.294-2.523c1.157-0.385,2.574-0.657,4.14-0.657
			c4.72,0,6.864,2.609,6.864,5.576C29.256,18.692,27.575,20.479,26.215,21.981z"/>
	</g>
</g>
<g>
</g>
<g>
</g>
<g>
</g>
<g>
</g>
<g>
</g>
<g>
</g>
<g>
</g>
<g>
</g>
<g>
</g>
<g>
</g>
<g>
</g>
<g>
</g>
<g>
</g>
<g>
</g>
<g>
</g>
</svg>
