<?xml version="1.0" encoding="UTF-8" standalone="no"?>
<!-- Created with Inkscape (http://www.inkscape.org/) -->

<svg
   xmlns:dc="http://purl.org/dc/elements/1.1/"
   xmlns:cc="http://creativecommons.org/ns#"
   xmlns:rdf="http://www.w3.org/1999/02/22-rdf-syntax-ns#"
   xmlns:svg="http://www.w3.org/2000/svg"
   xmlns="http://www.w3.org/2000/svg"
   xmlns:sodipodi="http://sodipodi.sourceforge.net/DTD/sodipodi-0.dtd"
   xmlns:inkscape="http://www.inkscape.org/namespaces/inkscape"
   width="26.633942mm"
   height="26.622765mm"
   viewBox="0 0 26.633942 26.622765"
   version="1.1"
   id="svg8"
   inkscape:version="0.92.1 r15371"
   sodipodi:docname="settings.svg">
  <defs
     id="defs2">
    <clipPath
       id="clipPath5008"
       clipPathUnits="userSpaceOnUse">
      <path
         inkscape:connector-curvature="0"
         id="path5006"
         d="M 0,0 H 312.043 V 74.4482 H 0 Z" />
    </clipPath>
    <clipPath
       id="clipPath5016"
       clipPathUnits="userSpaceOnUse">
      <path
         inkscape:connector-curvature="0"
         id="path5014"
         d="M 0,74.448 H 312.043 V 0 H 0 Z" />
    </clipPath>
    <clipPath
       id="clipPath5112"
       clipPathUnits="userSpaceOnUse">
      <path
         inkscape:connector-curvature="0"
         id="path5110"
         d="M 0,0 H 312.043 V 74.4482 H 0 Z" />
    </clipPath>
    <clipPath
       id="clipPath5120"
       clipPathUnits="userSpaceOnUse">
      <path
         inkscape:connector-curvature="0"
         id="path5118"
         d="M 0,74.448 H 312.043 V 0 H 0 Z" />
    </clipPath>
    <clipPath
       id="clipPath5332"
       clipPathUnits="userSpaceOnUse">
      <path
         inkscape:connector-curvature="0"
         id="path5330"
         d="M 0,74.448 H 312.043 V 0 H 0 Z" />
    </clipPath>
  </defs>
  <sodipodi:namedview
     id="base"
     pagecolor="#ffffff"
     bordercolor="#666666"
     borderopacity="1.0"
     inkscape:pageopacity="0.0"
     inkscape:pageshadow="2"
     inkscape:zoom="1.979899"
     inkscape:cx="55.535688"
     inkscape:cy="-51.060819"
     inkscape:document-units="mm"
     inkscape:current-layer="layer1"
     showgrid="false"
     inkscape:window-width="1920"
     inkscape:window-height="1017"
     inkscape:window-x="-8"
     inkscape:window-y="-8"
     inkscape:window-maximized="1"
     fit-margin-top="0"
     fit-margin-left="0"
     fit-margin-right="0"
     fit-margin-bottom="0" />
  <metadata
     id="metadata5">
    <rdf:RDF>
      <cc:Work
         rdf:about="">
        <dc:format>image/svg+xml</dc:format>
        <dc:type
           rdf:resource="http://purl.org/dc/dcmitype/StillImage" />
        <dc:title></dc:title>
      </cc:Work>
    </rdf:RDF>
  </metadata>
  <g
     inkscape:label="Layer 1"
     inkscape:groupmode="layer"
     id="layer1"
     transform="translate(-47.411611,-89.28804)">
    <rect
       ry="0"
       y="96.157379"
       x="61.161472"
       height="5.9999995"
       width="5.9999995"
       id="rect5504"
       style="opacity:0.98999999;fill:#000000;fill-opacity:0.74509805;stroke:none;stroke-width:0.55408633;stroke-linecap:round;stroke-linejoin:round;stroke-miterlimit:4;stroke-dasharray:none;stroke-dashoffset:0;stroke-opacity:0" />
    <rect
       ry="0"
       y="103.02673"
       x="54.292122"
       height="5.9999995"
       width="5.9999995"
       id="rect5504-3"
       style="opacity:0.98999999;fill:#000000;fill-opacity:0.74509805;stroke:none;stroke-width:0.55408633;stroke-linecap:round;stroke-linejoin:round;stroke-miterlimit:4;stroke-dasharray:none;stroke-dashoffset:0;stroke-opacity:0" />
    <rect
       ry="0"
       y="89.28804"
       x="68.030823"
       height="5.9999995"
       width="5.9999995"
       id="rect5504-3-5"
       style="opacity:0.98999999;fill:#000000;fill-opacity:0.58823532;stroke:none;stroke-width:0.55408633;stroke-linecap:round;stroke-linejoin:round;stroke-miterlimit:4;stroke-dasharray:none;stroke-dashoffset:0;stroke-opacity:0" />
    <rect
       ry="0"
       y="109.89607"
       x="47.422779"
       height="5.9999995"
       width="5.9999995"
       id="rect5504-3-5-9"
       style="opacity:0.98999999;fill:#000000;fill-opacity:0.58823532;stroke:none;stroke-width:0.55408633;stroke-linecap:round;stroke-linejoin:round;stroke-miterlimit:4;stroke-dasharray:none;stroke-dashoffset:0;stroke-opacity:0" />
    <path
       inkscape:connector-curvature="0"
       id="path5551-7"
       d="m 68.384967,102.12089 a 5.6090734,5.7219584 0 0 0 5.609354,-5.721928 5.6090734,5.7219584 0 0 0 -0.0099,-0.205087 h -5.917053 v 5.910705 a 5.6090734,5.7219584 0 0 0 0.317634,0.0163 z"
       style="opacity:0.98999999;fill:#000000;fill-opacity:0.58823532;stroke:none;stroke-width:0.80861557;stroke-linecap:round;stroke-linejoin:round;stroke-miterlimit:4;stroke-dasharray:none;stroke-dashoffset:0;stroke-opacity:0" />
    <path
       inkscape:connector-curvature="0"
       id="path5663"
       d="m 48.273011,101.19648 v -7.582053 c 0,-1.914144 1.419511,-3.455134 3.182761,-3.455134 v 0 h 14.767271"
       style="opacity:1;fill:none;fill-opacity:1;stroke:#989494;stroke-width:1.72279966;stroke-linecap:square;stroke-linejoin:miter;stroke-miterlimit:4;stroke-dasharray:none;stroke-dashoffset:0;stroke-opacity:1;paint-order:fill markers stroke" />
    <path
       inkscape:connector-curvature="0"
       id="rect5617"
       d="m 73.237813,102.83043 4e-6,9.15498 c 0,1.72718 -1.383263,3.11766 -3.101485,3.11766 H 55.846077"
       style="opacity:1;fill:none;fill-opacity:1;stroke:#989494;stroke-width:1.61547112;stroke-linecap:square;stroke-linejoin:miter;stroke-miterlimit:4;stroke-dasharray:none;stroke-dashoffset:0;stroke-opacity:1;paint-order:fill markers stroke" />
    <path
       inkscape:connector-curvature="0"
       id="path5551-7-4"
       d="m 61.515618,108.99023 a 5.6090734,5.7219584 0 0 0 5.609354,-5.72192 5.6090734,5.7219584 0 0 0 -0.0099,-0.20509 H 61.19797 v 5.91071 a 5.6090734,5.7219584 0 0 0 0.317634,0.0163 z"
       style="opacity:0.98999999;fill:#000000;fill-opacity:0.74509805;stroke:none;stroke-width:0.80861557;stroke-linecap:round;stroke-linejoin:round;stroke-miterlimit:4;stroke-dasharray:none;stroke-dashoffset:0;stroke-opacity:0" />
    <path
       inkscape:connector-curvature="0"
       id="path5551-7-4-3"
       d="m 59.937975,96.193874 a 5.6090734,5.7219584 0 0 0 -5.609354,5.721926 5.6090734,5.7219584 0 0 0 0.0099,0.20509 h 5.917053 v -5.910711 a 5.6090734,5.7219584 0 0 0 -0.317634,-0.0163 z"
       style="opacity:0.98999999;fill:#000000;fill-opacity:1;stroke:none;stroke-width:0.80861557;stroke-linecap:round;stroke-linejoin:round;stroke-miterlimit:4;stroke-dasharray:none;stroke-dashoffset:0;stroke-opacity:0" />
    <path
       inkscape:connector-curvature="0"
       id="path5551-7-4-3-0"
       d="m 53.068633,103.06322 a 5.6090734,5.7219584 0 0 0 -5.609353,5.72193 5.6090734,5.7219584 0 0 0 0.0099,0.20508 h 5.917053 v -5.91071 a 5.6090734,5.7219584 0 0 0 -0.317634,-0.0163 z"
       style="opacity:0.98999999;fill:#000000;fill-opacity:0.58823532;stroke:none;stroke-width:0.80861557;stroke-linecap:round;stroke-linejoin:round;stroke-miterlimit:4;stroke-dasharray:none;stroke-dashoffset:0;stroke-opacity:0" />
    <g
       transform="matrix(0.29334239,0,0,0.29334239,60.551803,102.41705)"
       id="g5486">
      <g
         id="g3">
        <path
           inkscape:connector-curvature="0"
           d="m 41.534,28.66 h 1.957 C 44.877,28.66 46,27.536 46,26.15 v -6.3 c 0,-1.385 -1.124,-2.509 -2.509,-2.509 H 41.54 v 0.006 C 41.148,16.14 40.687,14.983 40.103,13.889 l 1.381,-1.381 c 0.979,-0.98 0.979,-2.569 0,-3.549 L 37.04,4.517 c -0.979,-0.979 -2.567,-0.979 -3.547,0 l -1.382,1.38 C 31.017,5.313 29.861,4.852 28.654,4.461 H 28.66 V 2.51 C 28.66,1.124 27.537,0 26.15,0 h -6.3 c -1.386,0 -2.509,1.124 -2.509,2.51 v 1.955 l 0.014,-10e-4 c -1.207,0.367 -2.363,0.85 -3.458,1.435 L 12.516,4.518 c -0.98,-0.979 -2.568,-0.979 -3.548,0 L 4.525,8.961 C 3.546,9.94 3.545,11.527 4.523,12.507 L 5.9,13.889 C 5.316,14.983 4.851,16.14 4.46,17.346 V 17.341 H 2.509 C 1.124,17.341 0,18.465 0,19.85 v 6.301 c 0,1.387 1.124,2.511 2.509,2.511 H 4.473 L 4.467,28.647 c 0.367,1.207 0.853,2.362 1.436,3.457 l -1.38,1.381 c -0.98,0.979 -0.979,2.567 0,3.547 l 4.443,4.442 c 0.979,0.979 2.568,0.979 3.548,0 l 1.381,-1.381 c 1.094,0.584 2.251,1.072 3.458,1.438 l -0.014,-0.006 v 1.965 c 0,1.387 1.123,2.51 2.509,2.51 h 6.3 c 1.387,0 2.51,-1.123 2.51,-2.51 v -1.95 h -0.006 c 1.207,-0.392 2.363,-0.856 3.457,-1.44 l 1.381,1.379 c 0.98,0.979 2.568,0.979 3.547,0 l 4.443,-4.445 c 0.979,-0.979 0.979,-2.566 0,-3.547 l -1.383,-1.383 c 0.584,-1.094 1.068,-2.25 1.436,-3.457 z M 23.021,36.714 C 15.444,36.723 9.278,30.557 9.287,22.98 9.296,15.441 15.45,9.287 22.989,9.278 c 7.578,-0.009 13.744,6.157 13.734,13.734 -0.01,7.539 -6.162,13.693 -13.702,13.702 z"
           id="path5" />
      </g>
      <g
         id="g7" />
      <g
         id="g9" />
      <g
         id="g11" />
      <g
         id="g13" />
      <g
         id="g15" />
      <g
         id="g17" />
      <g
         id="g19" />
      <g
         id="g21" />
      <g
         id="g23" />
      <g
         id="g25" />
      <g
         id="g27" />
      <g
         id="g29" />
      <g
         id="g31" />
      <g
         id="g33" />
      <g
         id="g35" />
    </g>
  </g>
</svg>
