<?xml version="1.0" encoding="UTF-8" standalone="no"?>
<!-- Generator: Adobe Illustrator 16.0.0, SVG Export Plug-In . SVG Version: 6.00 Build 0)  -->

<svg
   xmlns:dc="http://purl.org/dc/elements/1.1/"
   xmlns:cc="http://creativecommons.org/ns#"
   xmlns:rdf="http://www.w3.org/1999/02/22-rdf-syntax-ns#"
   xmlns:svg="http://www.w3.org/2000/svg"
   xmlns="http://www.w3.org/2000/svg"
   xmlns:sodipodi="http://sodipodi.sourceforge.net/DTD/sodipodi-0.dtd"
   xmlns:inkscape="http://www.inkscape.org/namespaces/inkscape"
   version="1.1"
   id="Capa_1"
   x="0px"
   y="0px"
   width="485.215px"
   height="485.215px"
   viewBox="0 0 485.215 485.215"
   style="enable-background:new 0 0 485.215 485.215;"
   xml:space="preserve"
   inkscape:version="0.91 r13725"
   sodipodi:docname="_layout-properties.svg"><metadata
     id="metadata41"><rdf:RDF><cc:Work
         rdf:about=""><dc:format>image/svg+xml</dc:format><dc:type
           rdf:resource="http://purl.org/dc/dcmitype/StillImage" /><dc:title /></cc:Work></rdf:RDF></metadata><defs
     id="defs39" /><sodipodi:namedview
     pagecolor="#ffffff"
     bordercolor="#666666"
     borderopacity="1"
     objecttolerance="10"
     gridtolerance="10"
     guidetolerance="10"
     inkscape:pageopacity="0"
     inkscape:pageshadow="2"
     inkscape:window-width="1089"
     inkscape:window-height="666"
     id="namedview37"
     showgrid="false"
     inkscape:zoom="0.48638233"
     inkscape:cx="-76.345972"
     inkscape:cy="407.08716"
     inkscape:window-x="649"
     inkscape:window-y="50"
     inkscape:window-maximized="0"
     inkscape:current-layer="Capa_1" /><g
     id="g10349"
     transform="matrix(9.555651,0,0,9.555651,33.619919,20.049693)"><g
       id="Layer_1_110_"><g
         id="g10352"><path
           inkscape:connector-curvature="0"
           d="m 17.567,15.938 -2.859,-2.702 c 0.333,-0.605 0.539,-1.29 0.539,-2.029 0,-2.342 -1.897,-4.239 -4.24,-4.239 -2.343,0 -4.243,1.896 -4.243,4.239 0,2.343 1.9,4.241 4.243,4.241 0.826,0 1.59,-0.246 2.242,-0.654 l 2.855,2.699 c 0.432,-0.571 0.919,-1.094 1.463,-1.555 z"
           id="path10354" /><path
           inkscape:connector-curvature="0"
           d="m 29.66,15.6 3.799,-6.393 c 0.374,0.107 0.762,0.184 1.169,0.184 2.347,0 4.244,-1.898 4.244,-4.241 0,-2.342 -1.897,-4.239 -4.244,-4.239 -2.343,0 -4.239,1.896 -4.239,4.239 0,1.163 0.469,2.214 1.227,2.981 l -3.787,6.375 c 0.651,0.295 1.265,0.663 1.831,1.094 z"
           id="path10356" /><path
           inkscape:connector-curvature="0"
           d="m 42.762,20.952 c -1.824,0 -3.369,1.159 -3.968,2.775 l -5.278,-0.521 c 0,0.04 0.006,0.078 0.006,0.117 0,0.688 -0.076,1.36 -0.213,2.009 l 5.276,0.521 c 0.319,2.024 2.062,3.576 4.177,3.576 2.342,0 4.238,-1.896 4.238,-4.238 0,-2.341 -1.896,-4.239 -4.238,-4.239 z"
           id="path10358" /><path
           inkscape:connector-curvature="0"
           d="m 28.197,37.624 -1.18,-5.156 c -0.666,0.232 -1.359,0.398 -2.082,0.481 l 1.182,5.157 c -1.355,0.709 -2.29,2.11 -2.29,3.746 0,2.342 1.896,4.237 4.243,4.237 2.342,0 4.238,-1.896 4.238,-4.237 0.003,-2.299 -1.829,-4.16 -4.111,-4.228 z"
           id="path10360" /><circle
           cx="23.83"
           cy="23.323"
           r="7.2709999"
           id="circle10364" /></g></g></g><g
     id="g10366"
     transform="matrix(9.555651,0,0,9.555651,17.619919,18.049693)" /><g
     id="g10368"
     transform="matrix(9.555651,0,0,9.555651,17.619919,18.049693)" /><g
     id="g10370"
     transform="matrix(9.555651,0,0,9.555651,17.619919,18.049693)" /><g
     id="g10372"
     transform="matrix(9.555651,0,0,9.555651,17.619919,18.049693)" /><g
     id="g10374"
     transform="matrix(9.555651,0,0,9.555651,17.619919,18.049693)" /><g
     id="g10376"
     transform="matrix(9.555651,0,0,9.555651,17.619919,18.049693)" /><g
     id="g10378"
     transform="matrix(9.555651,0,0,9.555651,17.619919,18.049693)" /><g
     id="g10380"
     transform="matrix(9.555651,0,0,9.555651,17.619919,18.049693)" /><g
     id="g10382"
     transform="matrix(9.555651,0,0,9.555651,17.619919,18.049693)" /><g
     id="g10384"
     transform="matrix(9.555651,0,0,9.555651,17.619919,18.049693)" /><g
     id="g10386"
     transform="matrix(9.555651,0,0,9.555651,17.619919,18.049693)" /><g
     id="g10388"
     transform="matrix(9.555651,0,0,9.555651,17.619919,18.049693)" /><g
     id="g10390"
     transform="matrix(9.555651,0,0,9.555651,17.619919,18.049693)" /><g
     id="g10392"
     transform="matrix(9.555651,0,0,9.555651,17.619919,18.049693)" /><g
     id="g10394"
     transform="matrix(9.555651,0,0,9.555651,17.619919,18.049693)" /><g
     id="g4320"
     transform="matrix(4.7544271,0,0,4.7544271,7.8399361,260.72741)"><g
       id="g4280"><path
         id="path4282"
         d="m 41.534,28.66 1.957,0 C 44.877,28.66 46,27.536 46,26.15 l 0,-6.3 c 0,-1.385 -1.124,-2.509 -2.509,-2.509 l -1.951,0 0,0.006 C 41.148,16.14 40.687,14.983 40.103,13.889 l 1.381,-1.381 c 0.979,-0.98 0.979,-2.569 0,-3.549 L 37.04,4.517 c -0.979,-0.979 -2.567,-0.979 -3.547,0 l -1.382,1.38 C 31.017,5.313 29.861,4.852 28.654,4.461 l 0.006,0 0,-1.951 C 28.66,1.124 27.537,0 26.15,0 l -6.3,0 c -1.386,0 -2.509,1.124 -2.509,2.51 l 0,1.955 0.014,-10e-4 c -1.207,0.367 -2.363,0.85 -3.458,1.435 L 12.516,4.518 c -0.98,-0.979 -2.568,-0.979 -3.548,0 L 4.525,8.961 C 3.546,9.94 3.545,11.527 4.523,12.507 L 5.9,13.889 C 5.316,14.983 4.851,16.14 4.46,17.346 l 0,-0.005 -1.951,0 C 1.124,17.341 0,18.465 0,19.85 l 0,6.301 c 0,1.387 1.124,2.511 2.509,2.511 l 1.964,0 -0.006,-0.015 c 0.367,1.207 0.853,2.362 1.436,3.457 l -1.38,1.381 c -0.98,0.979 -0.979,2.567 0,3.547 l 4.443,4.442 c 0.979,0.979 2.568,0.979 3.548,0 l 1.381,-1.381 c 1.094,0.584 2.251,1.072 3.458,1.438 l -0.014,-0.006 0,1.965 c 0,1.387 1.123,2.51 2.509,2.51 l 6.3,0 c 1.387,0 2.51,-1.123 2.51,-2.51 l 0,-1.95 -0.006,0 c 1.207,-0.392 2.363,-0.856 3.457,-1.44 l 1.381,1.379 c 0.98,0.979 2.568,0.979 3.547,0 l 4.443,-4.445 c 0.979,-0.979 0.979,-2.566 0,-3.547 l -1.383,-1.383 c 0.584,-1.094 1.068,-2.25 1.436,-3.457 l 10e-4,0.013 z M 23.021,36.714 C 15.444,36.723 9.278,30.557 9.287,22.98 9.296,15.441 15.45,9.287 22.989,9.278 c 7.578,-0.009 13.744,6.157 13.734,13.734 -0.01,7.539 -6.162,13.693 -13.702,13.702 z"
         inkscape:connector-curvature="0" /></g><g
       id="g4284" /><g
       id="g4286" /><g
       id="g4288" /><g
       id="g4290" /><g
       id="g4292" /><g
       id="g4294" /><g
       id="g4296" /><g
       id="g4298" /><g
       id="g4300" /><g
       id="g4302" /><g
       id="g4304" /><g
       id="g4306" /><g
       id="g4308" /><g
       id="g4310" /><g
       id="g4312" /></g></svg>