<?xml version="1.0" encoding="iso-8859-1"?>
<!-- Generator: Adobe Illustrator 16.0.0, SVG Export Plug-In . SVG Version: 6.00 Build 0)  -->
<!DOCTYPE svg PUBLIC "-//W3C//DTD SVG 1.1//EN" "http://www.w3.org/Graphics/SVG/1.1/DTD/svg11.dtd">
<svg version="1.1" id="Capa_1" xmlns="http://www.w3.org/2000/svg" xmlns:xlink="http://www.w3.org/1999/xlink" x="0px" y="0px"
	 width="541.911px" height="541.911px" viewBox="0 0 541.911 541.911" style="enable-background:new 0 0 541.911 541.911;"
	 xml:space="preserve">
<g>
	<path d="M467.826,8.781v47.451H74.091V8.781c0-4.608-3.729-8.334-8.334-8.334c-4.607,0-8.334,3.727-8.334,8.334v49.068H8.334
		C3.73,57.849,0,61.584,0,66.183c0,4.607,3.73,8.334,8.334,8.334h49.083v392.868H8.334c-4.604,0-8.334,3.729-8.334,8.334
		c0,4.61,3.73,8.334,8.334,8.334h49.083v49.077c0,4.604,3.727,8.334,8.334,8.334c4.604,0,8.334-3.729,8.334-8.334v-49.077h393.74
		v49.077c0,4.604,3.729,8.334,8.334,8.334c4.61,0,8.334-3.729,8.334-8.334v-49.077h49.083c4.604,0,8.334-3.724,8.334-8.334
		c0-4.604-3.729-8.334-8.334-8.334h-48.332V74.517h48.332c4.604,0,8.334-3.727,8.334-8.334c0-4.599-3.729-8.334-8.334-8.334h-49.083
		V8.781c0-4.608-3.724-8.334-8.334-8.334C471.555,0.446,467.826,4.173,467.826,8.781z M468.204,340.528v126.857H340.413V340.528
		H468.204z M334.857,340.528v126.857H207.436V340.528H334.857z M201.504,340.528v126.857H74.091V340.528H201.504z M468.204,207.172
		v127.8H340.413v-127.8H468.204z M334.857,207.172v127.8H207.436v-127.8H334.857z M201.504,207.172v127.8H74.091v-127.8H201.504z
		 M468.204,73.829v127.788H340.413V73.829H468.204z M334.857,73.829v127.788H207.436V73.829H334.857z M201.504,73.829v127.788
		H74.091V73.829H201.504z M323.414,83.885V188.79H218.506V83.885H323.414z"/>
</g>
<g>
</g>
<g>
</g>
<g>
</g>
<g>
</g>
<g>
</g>
<g>
</g>
<g>
</g>
<g>
</g>
<g>
</g>
<g>
</g>
<g>
</g>
<g>
</g>
<g>
</g>
<g>
</g>
<g>
</g>
</svg>
