<?xml version="1.0" encoding="UTF-8" standalone="no"?>
<!-- Generator: Adobe Illustrator 16.0.0, SVG Export Plug-In . SVG Version: 6.00 Build 0)  -->

<svg
   xmlns:dc="http://purl.org/dc/elements/1.1/"
   xmlns:cc="http://creativecommons.org/ns#"
   xmlns:rdf="http://www.w3.org/1999/02/22-rdf-syntax-ns#"
   xmlns:svg="http://www.w3.org/2000/svg"
   xmlns="http://www.w3.org/2000/svg"
   xmlns:sodipodi="http://sodipodi.sourceforge.net/DTD/sodipodi-0.dtd"
   xmlns:inkscape="http://www.inkscape.org/namespaces/inkscape"
   version="1.1"
   id="Capa_1"
   x="0px"
   y="0px"
   width="471.608px"
   height="471.608px"
   viewBox="0 0 471.608 471.608"
   style="enable-background:new 0 0 471.608 471.608;"
   xml:space="preserve"
   inkscape:version="0.91 r13725"
   sodipodi:docname="undo.svg"><metadata
     id="metadata41"><rdf:RDF><cc:Work
         rdf:about=""><dc:format>image/svg+xml</dc:format><dc:type
           rdf:resource="http://purl.org/dc/dcmitype/StillImage" /></cc:Work></rdf:RDF></metadata><defs
     id="defs39" /><sodipodi:namedview
     pagecolor="#ffffff"
     bordercolor="#666666"
     borderopacity="1"
     objecttolerance="10"
     gridtolerance="10"
     guidetolerance="10"
     inkscape:pageopacity="0"
     inkscape:pageshadow="2"
     inkscape:window-width="1229"
     inkscape:window-height="816"
     id="namedview37"
     showgrid="false"
     inkscape:zoom="0.5004156"
     inkscape:cx="235.804"
     inkscape:cy="235.804"
     inkscape:window-x="0"
     inkscape:window-y="0"
     inkscape:window-maximized="0"
     inkscape:current-layer="Capa_1" /><g
     id="g3"><path
       d="m 384.53519,91.067744 c -81.45954,-81.4568791 -214.00807,-81.4568791 -295.465828,0 -81.4577641,81.456876 -81.4568781,214.011606 0,295.465826 81.456868,81.45953 214.005408,81.45953 295.465828,0 81.45953,-81.45334 81.45953,-214.00275 0,-295.465826 z M 368.32883,370.33872 c -72.51859,72.51859 -190.5363,72.51859 -263.06639,0 -72.516817,-72.53009 -72.516817,-190.5425 0,-263.06727 72.5292,-72.526559 190.53629,-72.526559 263.06639,0 72.52567,72.52477 72.52567,190.53718 0,263.06727 z m 12.44347,-198.1276 -11.62076,52.32971 c -0.3135,1.44706 -1.74373,2.34682 -3.18282,2.03598 -0.44014,-0.0939 -10.95036,-2.35834 -26.29858,-2.35834 -25.88944,0 -71.62413,6.85184 -101.83172,49.55338 l 6.29656,6.29657 70.50386,30.55917 c 2.36542,1.03703 3.75758,3.50695 3.39183,6.0672 -0.3507,2.54962 -2.361,4.55461 -4.93099,4.87342 l -175.60519,22.95901 c -1.75879,0.23025 -3.53883,-0.37726 -4.79726,-1.62772 -1.2664,-1.26197 -1.85532,-3.0367 -1.63569,-4.80612 l 22.959,-175.60785 c 0.16473,-1.285 0.75364,-2.43627 1.6233,-3.30503 0.85814,-0.85903 1.98904,-1.44795 3.26341,-1.63127 2.54697,-0.35778 5.01777,1.03703 6.05392,3.39448 l 30.56714,70.50652 0.15763,0.15763 c 47.14191,-59.40117 115.41584,-66.48946 145.02831,-66.48946 13.54693,0 26.69622,1.34522 38.02384,3.88687 1.45326,0.3321 2.36365,1.76322 2.03421,3.20585 z"
       id="path5"
       inkscape:connector-curvature="0" /></g><g
     id="g7" /><g
     id="g9" /><g
     id="g11" /><g
     id="g13" /><g
     id="g15" /><g
     id="g17" /><g
     id="g19" /><g
     id="g21" /><g
     id="g23" /><g
     id="g25" /><g
     id="g27" /><g
     id="g29" /><g
     id="g31" /><g
     id="g33" /><g
     id="g35" /></svg>