<?xml version="1.0" encoding="UTF-8" standalone="no"?>
<!DOCTYPE svg PUBLIC "-//W3C//DTD SVG 1.1//EN"
"http://www.w3.org/Graphics/SVG/1.1/DTD/svg11.dtd">


<!-- Page 1 -->
<svg x="0" y="0" width="113" height="113" viewBox="0 0 113 113" version="1.1" xmlns="http://www.w3.org/2000/svg" xmlns:xlink="http://www.w3.org/1999/xlink"
style="display: block;margin-left: auto;margin-right: auto;">
<defs>
<clipPath id="c0_1"><path d="M0,113.7L0,0L476.7,0l0,113.7Z" /></clipPath>

<style type="text/css"><![CDATA[

.g1_1{
fill: none;
stroke: #000000;
stroke-width: 0.38194445;
stroke-linecap: butt;
stroke-linejoin: miter;
stroke-miterlimit: 4;
}
.g2_1{
fill: #C9CACC;
}
.g3_1{
fill: #78797C;
}
.g4_1{
fill: #9C9EA1;
}
.g5_1{
fill: #696A6D;
}


]]></style>

</defs>
<path d="M0,0
L0,113
L113,113
L113,0 Z " 
fill="#FFFFFF" stroke="none" />
<g clip-path="url(#c0_1)">
<path d="M785.3,721.7l-909.4,0l0,-1286.1l909.4,0l0,1286.1Z" class="g1_1" />
<path d="M7.3,19.7C7.3,12.8,12.8,7.3,19.7,7.3l64.7,0L84.4,0L19.7,0C8.8,0,0,8.8,0,19.7L0,54.9l7.3,0Z" class="g2_1" />
<path d="M106.5,94.1c0,6.8,-5.6,12.3,-12.4,12.3l-65.1,0l0,7.3l65.1,0c10.8,0,19.6,-8.8,19.6,-19.6l0,-39.2l-7.2,0Z" class="g2_1" />
</g>
<path d="M84.4,54.8l-25.8,0l0,-26l25.8,0l0,26Z" class="g3_1" />
<path d="M54.8,84.7l-25.5,0l0,-26l25.5,0l0,26Z" class="g3_1" />
<path d="M25.8,113.7L0,113.7L0,88.5l25.8,0l0,25.2Z" class="g4_1" />
<path d="M87.9,54.8c14.3,0,25.8,-11.6,25.8,-26l-25.8,0Z" class="g4_1" />
<path d="M58.6,84.7c14.3,0,25.8,-11.7,25.8,-26l-25.8,0Z" class="g5_1" />
<path d="M55.1,28.8c-14.3,0,-25.8,11.7,-25.8,26l25.8,0Z" class="g5_1" />
<path d="M25.8,58.7C11.6,58.7,0,70.3,0,84.7l25.8,0Z" class="g4_1" />
<path d="M113.7,25.5l-25.8,0L87.9,0l25.8,0Z" class="g4_1" />

</svg>
