<?xml version="1.0" encoding="iso-8859-1"?>
<!-- Generator: Adobe Illustrator 18.0.0, SVG Export Plug-In . SVG Version: 6.00 Build 0)  -->
<!DOCTYPE svg PUBLIC "-//W3C//DTD SVG 1.1//EN" "http://www.w3.org/Graphics/SVG/1.1/DTD/svg11.dtd">
<svg version="1.1" id="Capa_1" xmlns="http://www.w3.org/2000/svg" xmlns:xlink="http://www.w3.org/1999/xlink" x="0px" y="0px"
	 viewBox="0 0 392.62 392.62" style="enable-background:new 0 0 392.62 392.62;" xml:space="preserve">
<g>
	<rect x="144.866" y="320.897" width="23.505" height="25"/>
	<path d="M309.795,0H266.49H126.131H82.825C37.667,0,0.929,36.738,0.929,81.896v228.828c0,45.158,36.738,81.896,81.896,81.896h58.32
		h113.443h55.206c45.157,0,81.896-36.738,81.896-81.896V81.896C391.691,36.738,354.952,0,309.795,0z M266.49,30
		c14.354,0,26.03,9.542,26.03,21.27V174.33c0,11.729-11.677,21.271-26.03,21.271H126.131c-14.354,0-26.031-9.542-26.031-21.271
		V51.27c0-11.728,11.678-21.27,26.031-21.27H266.49z M141.146,362.62c-6.259,0-11.352-5.092-11.352-11.351v-30.066
		c0-6.259,5.093-11.351,11.352-11.351h113.443c6.259,0,11.351,5.092,11.351,11.351v30.066c0,6.259-5.092,11.351-11.351,11.351
		H141.146z M361.691,310.724c0,28.616-23.28,51.896-51.896,51.896h-15.452c1.032-3.61,1.597-7.414,1.597-11.351v-30.066
		c0-22.801-18.55-41.351-41.351-41.351H141.146c-22.802,0-41.352,18.55-41.352,41.351v30.066c0,3.937,0.565,7.742,1.597,11.351
		H82.825c-28.616,0-51.896-23.28-51.896-51.896V81.896c0-25.91,19.087-47.444,43.938-51.285C71.811,36.935,70.1,43.921,70.1,51.27
		V174.33c0,28.271,25.136,51.271,56.031,51.271H266.49c30.896,0,56.03-23,56.03-51.271V51.27c0-7.348-1.711-14.334-4.767-20.659
		c24.851,3.841,43.938,25.375,43.938,51.285V310.724z"/>
</g>
<g>
</g>
<g>
</g>
<g>
</g>
<g>
</g>
<g>
</g>
<g>
</g>
<g>
</g>
<g>
</g>
<g>
</g>
<g>
</g>
<g>
</g>
<g>
</g>
<g>
</g>
<g>
</g>
<g>
</g>
</svg>
