<?xml version="1.0" encoding="UTF-8" standalone="no"?>
<!-- Generator: Adobe Illustrator 16.0.0, SVG Export Plug-In . SVG Version: 6.00 Build 0)  -->

<svg
   xmlns:dc="http://purl.org/dc/elements/1.1/"
   xmlns:cc="http://creativecommons.org/ns#"
   xmlns:rdf="http://www.w3.org/1999/02/22-rdf-syntax-ns#"
   xmlns:svg="http://www.w3.org/2000/svg"
   xmlns="http://www.w3.org/2000/svg"
   xmlns:sodipodi="http://sodipodi.sourceforge.net/DTD/sodipodi-0.dtd"
   xmlns:inkscape="http://www.inkscape.org/namespaces/inkscape"
   version="1.1"
   id="Capa_1"
   x="0px"
   y="0px"
   width="46px"
   height="46px"
   viewBox="0 0 46 46"
   style="enable-background:new 0 0 46 46;"
   xml:space="preserve"
   inkscape:version="0.91 r13725"
   sodipodi:docname="_settings.svg"
   inkscape:export-filename="C:\Users\ugur\Google Drive\i-Vis\Newt\icons\toolbar\_settings.png"
   inkscape:export-xdpi="49.009998"
   inkscape:export-ydpi="49.009998"><metadata
     id="metadata41"><rdf:RDF><cc:Work
         rdf:about=""><dc:format>image/svg+xml</dc:format><dc:type
           rdf:resource="http://purl.org/dc/dcmitype/StillImage" /></cc:Work></rdf:RDF></metadata><defs
     id="defs39" /><sodipodi:namedview
     pagecolor="#ffffff"
     bordercolor="#666666"
     borderopacity="1"
     objecttolerance="10"
     gridtolerance="10"
     guidetolerance="10"
     inkscape:pageopacity="0"
     inkscape:pageshadow="2"
     inkscape:window-width="690"
     inkscape:window-height="480"
     id="namedview37"
     showgrid="false"
     inkscape:zoom="5.1304348"
     inkscape:cx="23"
     inkscape:cy="23"
     inkscape:window-x="0"
     inkscape:window-y="0"
     inkscape:window-maximized="0"
     inkscape:current-layer="Capa_1" /><g
     id="g3"><path
       d="M41.534,28.66h1.957c1.386,0,2.509-1.124,2.509-2.51V19.85c0-1.385-1.124-2.509-2.509-2.509H41.54v0.006   c-0.392-1.207-0.853-2.364-1.437-3.458l1.381-1.381c0.979-0.98,0.979-2.569,0-3.549L37.04,4.517c-0.979-0.979-2.567-0.979-3.547,0   l-1.382,1.38c-1.094-0.584-2.25-1.045-3.457-1.436h0.006V2.51c0-1.386-1.123-2.51-2.51-2.51h-6.3c-1.386,0-2.509,1.124-2.509,2.51   v1.955l0.014-0.001c-1.207,0.367-2.363,0.85-3.458,1.435l-1.381-1.381c-0.98-0.979-2.568-0.979-3.548,0L4.525,8.961   c-0.979,0.979-0.98,2.566-0.002,3.546L5.9,13.889c-0.584,1.094-1.049,2.251-1.44,3.457v-0.005H2.509C1.124,17.341,0,18.465,0,19.85   v6.301c0,1.387,1.124,2.511,2.509,2.511h1.964l-0.006-0.015c0.367,1.207,0.853,2.362,1.436,3.457l-1.38,1.381   c-0.98,0.979-0.979,2.567,0,3.547l4.443,4.442c0.979,0.979,2.568,0.979,3.548,0l1.381-1.381c1.094,0.584,2.251,1.072,3.458,1.438   l-0.014-0.006v1.965c0,1.387,1.123,2.51,2.509,2.51h6.3c1.387,0,2.51-1.123,2.51-2.51v-1.95h-0.006   c1.207-0.392,2.363-0.856,3.457-1.44l1.381,1.379c0.98,0.979,2.568,0.979,3.547,0l4.443-4.445c0.979-0.979,0.979-2.566,0-3.547   l-1.383-1.383c0.584-1.094,1.068-2.25,1.436-3.457L41.534,28.66z M23.021,36.714C15.444,36.723,9.278,30.557,9.287,22.98   C9.296,15.441,15.45,9.287,22.989,9.278c7.578-0.009,13.744,6.157,13.734,13.734C36.713,30.551,30.561,36.705,23.021,36.714z"
       id="path5" /></g><g
     id="g7" /><g
     id="g9" /><g
     id="g11" /><g
     id="g13" /><g
     id="g15" /><g
     id="g17" /><g
     id="g19" /><g
     id="g21" /><g
     id="g23" /><g
     id="g25" /><g
     id="g27" /><g
     id="g29" /><g
     id="g31" /><g
     id="g33" /><g
     id="g35" /></svg>