<?xml version="1.0" encoding="iso-8859-1"?>
<!-- Generator: Adobe Illustrator 16.0.0, SVG Export Plug-In . SVG Version: 6.00 Build 0)  -->
<!DOCTYPE svg PUBLIC "-//W3C//DTD SVG 1.1//EN" "http://www.w3.org/Graphics/SVG/1.1/DTD/svg11.dtd">
<svg version="1.1" id="Capa_1" xmlns="http://www.w3.org/2000/svg" xmlns:xlink="http://www.w3.org/1999/xlink" x="0px" y="0px"
	 width="418px" height="418px" viewBox="0 0 418 418" style="enable-background:new 0 0 418 418;" xml:space="preserve">
<g>
	<g>
		<g>
			<path d="M91.606,143.703c-3.146-3.146-7.877-4.087-11.988-2.385c-4.11,1.703-6.79,5.714-6.79,10.163v115.037
				c0,4.449,2.68,8.461,6.79,10.164c1.361,0.563,2.79,0.836,4.208,0.836c2.862,0,5.676-1.116,7.78-3.222l57.52-57.519
				c2.063-2.063,3.222-4.861,3.222-7.778s-1.159-5.716-3.222-7.778L91.606,143.703z"/>
			<path d="M338.382,141.318c-4.107-1.7-8.841-0.763-11.987,2.385l-57.521,57.519c-2.062,2.063-3.222,4.861-3.222,7.778
				s1.158,5.716,3.222,7.777l57.521,57.52c2.104,2.104,4.918,3.223,7.779,3.223c1.417,0,2.848-0.272,4.208-0.838
				c4.11-1.703,6.79-5.714,6.79-10.162V151.481C345.172,147.032,342.492,143.021,338.382,141.318z"/>
			<path d="M212,0h-6c-6.075,0-11,4.925-11,11v35c0,6.075,4.925,11,11,11h6c6.075,0,11-4.925,11-11V11C223,4.925,218.075,0,212,0z"
				/>
			<path d="M212,95.352h-6c-6.075,0-11,4.925-11,11v72.473c0,6.075,4.925,11,11,11h6c6.075,0,11-4.925,11-11v-72.473
				C223,100.276,218.075,95.352,212,95.352z"/>
			<path d="M212,228.176h-6c-6.075,0-11,4.926-11,11v72.474c0,6.075,4.925,11,11,11h6c6.075,0,11-4.925,11-11v-72.474
				C223,233.102,218.075,228.176,212,228.176z"/>
			<path d="M212,361h-6c-6.075,0-11,4.925-11,11v35c0,6.075,4.925,11,11,11h6c6.075,0,11-4.925,11-11v-35
				C223,365.925,218.075,361,212,361z"/>
		</g>
	</g>
</g>
<g>
</g>
<g>
</g>
<g>
</g>
<g>
</g>
<g>
</g>
<g>
</g>
<g>
</g>
<g>
</g>
<g>
</g>
<g>
</g>
<g>
</g>
<g>
</g>
<g>
</g>
<g>
</g>
<g>
</g>
</svg>
