<?xml version="1.0" encoding="iso-8859-1"?>
<!-- Generator: Adobe Illustrator 16.0.0, SVG Export Plug-In . SVG Version: 6.00 Build 0)  -->
<!DOCTYPE svg PUBLIC "-//W3C//DTD SVG 1.1//EN" "http://www.w3.org/Graphics/SVG/1.1/DTD/svg11.dtd">
<svg version="1.1" id="Capa_1" xmlns="http://www.w3.org/2000/svg" xmlns:xlink="http://www.w3.org/1999/xlink" x="0px" y="0px"
	 width="73.058px" height="73.058px" viewBox="0 0 73.058 73.058" style="enable-background:new 0 0 73.058 73.058;"
	 xml:space="preserve">
<g>
	<g id="Eye">
		<g>
			<path d="M72.893,35.965c-0.58-0.925-14.432-22.541-35.16-22.541h-2.406c-20.729,0-34.58,21.616-35.159,22.541
				c-0.223,0.347-0.223,0.79,0,1.137c0.579,0.917,14.432,22.532,35.159,22.532h2.406c20.729,0,34.58-21.615,35.159-22.532
				C73.113,36.755,73.113,36.312,72.893,35.965z M45.267,36.529c0,4.69-3.92,8.506-8.736,8.506c-4.817,0-8.735-3.812-8.735-8.506
				c0-4.687,3.918-8.508,8.735-8.508C41.347,28.022,45.267,31.844,45.267,36.529z"/>
		</g>
	</g>
</g>
<g>
</g>
<g>
</g>
<g>
</g>
<g>
</g>
<g>
</g>
<g>
</g>
<g>
</g>
<g>
</g>
<g>
</g>
<g>
</g>
<g>
</g>
<g>
</g>
<g>
</g>
<g>
</g>
<g>
</g>
</svg>
