<?xml version='1.0' encoding='iso-8859-1'?>
<svg version="1.1" xmlns="http://www.w3.org/2000/svg" width= "44" height= "44" viewBox="0 0 44 44" xmlns:xlink="http://www.w3.org/1999/xlink" enable-background="new 0 0 44 44">
  <circle cx="22" cy="22" r="22" fill="#fff"/>
  <path d="m22,0c-12.2,0-22,9.8-22,22s9.8,22 22,22 22-9.8 22-22-9.8-22-22-22zm-1.3,19.3l-1.4,1.4c-0.4,0.4-1,0.4-1.4,0l-4-4c-0.3-0.3-0.9-0.1-0.9,0.4v1c0,0.6-0.4,1-1,1h-2c-0.6,0-1-0.4-1-1v-8c0-0.6 0.4-1 1-1h8c0.6,0 1,0.4 1,1v2c0,0.6-0.4,1-1,1h-1c-0.4,0-0.7,0.5-0.4,0.9l4,4c0.5,0.3 0.5,0.9 0.1,1.3zm14.3,14.7c0,0.6-0.4,1-1,1h-8c-0.6,0-1-0.4-1-1v-2c0-0.6 0.4-1 1-1h1c0.4,0 0.7-0.5 0.4-0.9l-4-4c-0.4-0.4-0.4-1 0-1.4l1.4-1.4c0.4-0.4 1-0.4 1.4,0l4,4c0.3,0.3 0.9,0.1 0.9-0.4v-1c0-0.6 0.4-1 1-1h2c0.6,0 1,0.4 1,1v8.1h-0.1z"/>
</svg>
